<svg xmlns="http://www.w3.org/2000/svg" viewBox="0 0 630 840" width="630" height="840">
  <defs>
    <radialGradient id="bg" cx="243" cy="437" r="630" gradientUnits="userSpaceOnUse">
      <stop offset="0%" stop-color="#1f8f99" stop-opacity="0.35"/>
      <stop offset="45%" stop-color="#131318"/>
      <stop offset="100%" stop-color="#08080b"/>
    </radialGradient>
    <filter id="glow" x="-200%" y="-200%" width="500%" height="500%">
      <feGaussianBlur stdDeviation="3" result="blur"/>
      <feMerge>
        <feMergeNode in="blur"/>
        <feMergeNode in="SourceGraphic"/>
      </feMerge>
    </filter>
  </defs>
  <rect width="630" height="840" fill="url(#bg)"/>
  <g>
    <line x1="240.6" y1="8.4" x2="227.0" y2="271.5" stroke="#1f8f99" stroke-width="1" opacity="0.55"/>
    <line x1="240.6" y1="8.4" x2="553.6" y2="78.2" stroke="#1f8f99" stroke-width="1" opacity="0.55"/>
    <line x1="562.1" y1="414.6" x2="549.7" y2="458.4" stroke="#1f8f99" stroke-width="1" opacity="0.55"/>
    <line x1="562.1" y1="414.6" x2="495.6" y2="322.2" stroke="#1f8f99" stroke-width="1" opacity="0.55"/>
    <line x1="338.5" y1="789.8" x2="141.2" y2="814.3" stroke="#1f8f99" stroke-width="1" opacity="0.55"/>
    <line x1="208.3" y1="450.3" x2="227.0" y2="271.5" stroke="#1f8f99" stroke-width="1" opacity="0.55"/>
    <line x1="52.9" y1="832.6" x2="141.2" y2="814.3" stroke="#1f8f99" stroke-width="1" opacity="0.55"/>
    <line x1="338.5" y1="789.8" x2="52.9" y2="832.6" stroke="#1f8f99" stroke-width="1" opacity="0.55"/>
    <line x1="502.5" y1="529.3" x2="549.7" y2="458.4" stroke="#1f8f99" stroke-width="1" opacity="0.55"/>
    <line x1="553.6" y1="78.2" x2="495.6" y2="322.2" stroke="#1f8f99" stroke-width="1" opacity="0.55"/>
    <line x1="495.6" y1="322.2" x2="549.7" y2="458.4" stroke="#1f8f99" stroke-width="1" opacity="0.55"/>
    <line x1="502.5" y1="529.3" x2="378.0" y2="574.5" stroke="#1f8f99" stroke-width="1" opacity="0.55"/>
    <circle cx="240.6" cy="8.4" r="3.7" fill="#45f3ff" filter="url(#glow)" opacity="0.74"/>
    <circle cx="562.1" cy="414.6" r="4.4" fill="#45f3ff" filter="url(#glow)" opacity="0.76"/>
    <circle cx="338.5" cy="789.8" r="4.3" fill="#45f3ff" filter="url(#glow)" opacity="0.61"/>
    <circle cx="208.3" cy="450.3" r="3.4" fill="#45f3ff" filter="url(#glow)" opacity="0.69"/>
    <circle cx="52.9" cy="832.6" r="4.1" fill="#45f3ff" filter="url(#glow)" opacity="0.77"/>
    <circle cx="502.5" cy="529.3" r="2.3" fill="#45f3ff" filter="url(#glow)" opacity="0.58"/>
    <circle cx="553.6" cy="78.2" r="3.6" fill="#45f3ff" filter="url(#glow)" opacity="0.63"/>
    <circle cx="495.6" cy="322.2" r="4.3" fill="#45f3ff" filter="url(#glow)" opacity="0.84"/>
    <circle cx="141.2" cy="814.3" r="3.9" fill="#45f3ff" filter="url(#glow)" opacity="0.77"/>
    <circle cx="549.7" cy="458.4" r="4.2" fill="#45f3ff" filter="url(#glow)" opacity="0.85"/>
    <circle cx="378.0" cy="574.5" r="4.3" fill="#45f3ff" filter="url(#glow)" opacity="0.84"/>
    <circle cx="227.0" cy="271.5" r="2.5" fill="#45f3ff" filter="url(#glow)" opacity="0.85"/>
  </g>
</svg>
